<svg width="746" height="305" viewBox="0 0 746 305" fill="none" xmlns="http://www.w3.org/2000/svg">
<path d="M261.925 264.202V213.38H269.589V237.649H270.211L291.516 213.38H301.164L280.676 236.26L301.239 264.202H292.012L275.593 241.497L269.589 248.394V264.202H261.925ZM462.872 264.202V213.38H470.536V257.602H493.554V264.202H462.872Z" fill="#656565"/>
<path d="M329.46 248.394V226.086H336.9V264.202H329.608V257.602H329.211C328.335 259.638 326.93 261.332 324.995 262.689C323.076 264.03 320.688 264.698 317.827 264.698C315.379 264.698 313.213 264.161 311.329 263.086C309.459 261.995 307.988 260.381 306.914 258.246C305.854 256.112 305.327 253.474 305.327 250.33V226.086H312.742V249.437C312.742 252.034 313.462 254.103 314.9 255.642C316.339 257.179 318.207 257.949 320.505 257.949C321.895 257.949 323.275 257.602 324.649 256.908C326.037 256.211 327.186 255.161 328.096 253.755C329.022 252.349 329.477 250.562 329.46 248.394ZM357.953 265.047C355.538 265.047 353.356 264.599 351.404 263.706C349.454 262.796 347.908 261.482 346.767 259.761C345.642 258.04 345.08 255.93 345.08 253.433C345.08 251.281 345.494 249.512 346.319 248.123C347.146 246.732 348.264 245.633 349.667 244.822C351.073 244.011 352.645 243.399 354.382 242.985C356.117 242.571 357.887 242.257 359.69 242.042C361.971 241.778 363.822 241.562 365.246 241.397C366.667 241.214 367.702 240.926 368.346 240.529C368.991 240.132 369.313 239.486 369.313 238.593V238.419C369.313 236.252 368.701 234.573 367.477 233.38C366.27 232.189 364.468 231.594 362.07 231.594C359.574 231.594 357.605 232.148 356.167 233.257C354.745 234.348 353.761 235.565 353.216 236.906L346.244 235.316C347.072 233 348.279 231.132 349.868 229.709C351.472 228.269 353.315 227.226 355.398 226.582C357.481 225.919 359.673 225.589 361.971 225.589C363.493 225.589 365.104 225.771 366.807 226.134C368.527 226.483 370.131 227.127 371.619 228.07C373.124 229.014 374.357 230.362 375.315 232.116C376.275 233.852 376.754 236.11 376.754 238.89V264.202H369.511V258.992H369.214C368.735 259.95 368.014 260.894 367.056 261.821C366.096 262.747 364.864 263.517 363.36 264.129C361.855 264.741 360.053 265.047 357.953 265.047ZM359.564 259.091C361.615 259.091 363.369 258.685 364.823 257.876C366.296 257.065 367.412 256.005 368.171 254.698C368.948 253.375 369.337 251.961 369.337 250.454V245.541C369.074 245.805 368.561 246.054 367.799 246.286C367.056 246.501 366.204 246.69 365.246 246.857C364.286 247.005 363.352 247.145 362.443 247.278C361.533 247.394 360.773 247.494 360.159 247.576C358.722 247.758 357.406 248.065 356.216 248.493C355.043 248.924 354.099 249.544 353.388 250.355C352.694 251.15 352.347 252.208 352.347 253.532C352.347 255.369 353.025 256.758 354.382 257.702C355.737 258.628 357.464 259.091 359.564 259.091ZM394.047 213.38V264.202H386.632V213.38H394.047ZM415.112 265.047C412.699 265.047 410.515 264.599 408.565 263.706C406.613 262.796 405.067 261.482 403.926 259.761C402.803 258.04 402.239 255.93 402.239 253.433C402.239 251.281 402.653 249.512 403.48 248.123C404.307 246.732 405.423 245.633 406.828 244.822C408.234 244.011 409.804 243.399 411.541 242.985C413.278 242.571 415.046 242.257 416.849 242.042C419.13 241.778 420.983 241.562 422.405 241.397C423.828 241.214 424.861 240.926 425.506 240.529C426.15 240.132 426.472 239.486 426.472 238.593V238.419C426.472 236.252 425.862 234.573 424.638 233.38C423.431 232.189 421.629 231.594 419.231 231.594C416.733 231.594 414.766 232.148 413.326 233.257C411.904 234.348 410.921 235.565 410.375 236.906L403.405 235.316C404.232 233 405.44 231.132 407.027 229.709C408.631 228.269 410.474 227.226 412.557 226.582C414.642 225.919 416.834 225.589 419.13 225.589C420.652 225.589 422.265 225.771 423.968 226.134C425.688 226.483 427.292 227.127 428.78 228.07C430.284 229.014 431.516 230.362 432.474 232.116C433.434 233.852 433.913 236.11 433.913 238.89V264.202H426.672V258.992H426.373C425.894 259.95 425.175 260.894 424.215 261.821C423.257 262.747 422.025 263.517 420.521 264.129C419.016 264.741 417.212 265.047 415.112 265.047ZM416.725 259.091C418.776 259.091 420.528 258.685 421.984 257.876C423.455 257.065 424.571 256.005 425.332 254.698C426.109 253.375 426.498 251.961 426.498 250.454V245.541C426.233 245.805 425.72 246.054 424.96 246.286C424.215 246.501 423.363 246.69 422.405 246.857C421.445 247.005 420.511 247.145 419.602 247.278C418.692 247.394 417.932 247.494 417.32 247.576C415.881 247.758 414.567 248.065 413.377 248.493C412.202 248.924 411.26 249.544 410.549 250.355C409.855 251.15 409.507 252.208 409.507 253.532C409.507 255.369 410.186 256.758 411.541 257.702C412.898 258.628 414.625 259.091 416.725 259.091Z" fill="#656565"/>
<path d="M525.836 248.394V226.086H533.278V264.202H525.984V257.602H525.588C524.712 259.638 523.306 261.332 521.371 262.689C519.453 264.03 517.064 264.698 514.203 264.698C511.757 264.698 509.589 264.161 507.705 263.086C505.835 261.995 504.364 260.381 503.29 258.246C502.231 256.112 501.703 253.474 501.703 250.33V226.086H509.118V249.437C509.118 252.034 509.838 254.103 511.278 255.642C512.715 257.179 514.583 257.949 516.883 257.949C518.272 257.949 519.651 257.602 521.025 256.908C522.413 256.211 523.562 255.161 524.472 253.755C525.398 252.349 525.853 250.562 525.836 248.394ZM543.242 264.202V226.086H550.361V232.289H550.833C551.626 230.188 552.923 228.55 554.726 227.376C556.528 226.185 558.686 225.59 561.199 225.59C563.747 225.59 565.88 226.185 567.6 227.376C569.335 228.567 570.617 230.205 571.444 232.289H571.841C572.751 230.253 574.197 228.634 576.181 227.424C578.165 226.202 580.531 225.59 583.276 225.59C586.731 225.59 589.55 226.672 591.734 228.84C593.933 231.006 595.033 234.275 595.033 238.641V264.202H587.616V239.338C587.616 236.756 586.913 234.887 585.507 233.728C584.102 232.571 582.423 231.991 580.473 231.991C578.058 231.991 576.181 232.736 574.841 234.225C573.503 235.698 572.833 237.591 572.833 239.907V264.202H565.44V238.866C565.44 236.797 564.796 235.135 563.507 233.878C562.217 232.62 560.539 231.991 558.473 231.991C557.067 231.991 555.768 232.364 554.578 233.109C553.404 233.835 552.452 234.854 551.726 236.161C551.014 237.468 550.659 238.982 550.659 240.703V264.202H543.242ZM604.973 278.497V226.086H612.214V232.264H612.835C613.264 231.47 613.885 230.551 614.696 229.51C615.506 228.467 616.629 227.557 618.068 226.78C619.507 225.986 621.409 225.59 623.773 225.59C626.85 225.59 629.593 226.367 632.008 227.922C634.422 229.476 636.316 231.718 637.688 234.646C639.076 237.574 639.771 241.1 639.771 245.219C639.771 249.338 639.086 252.871 637.712 255.814C636.34 258.743 634.456 261.002 632.058 262.59C629.661 264.161 626.923 264.947 623.848 264.947C621.533 264.947 619.639 264.558 618.167 263.781C616.713 263.004 615.572 262.094 614.744 261.051C613.917 260.008 613.281 259.083 612.835 258.273H612.388V278.497H604.973ZM612.24 245.144C612.24 247.823 612.628 250.173 613.406 252.191C614.183 254.21 615.306 255.79 616.779 256.932C618.25 258.057 620.052 258.619 622.186 258.619C624.402 258.619 626.253 258.031 627.742 256.857C629.23 255.666 630.355 254.052 631.115 252.017C631.892 249.984 632.281 247.692 632.281 245.144C632.281 242.629 631.901 240.371 631.139 238.37C630.396 236.367 629.271 234.788 627.767 233.629C626.279 232.47 624.418 231.892 622.186 231.892C620.037 231.892 618.216 232.446 616.728 233.554C615.257 234.663 614.142 236.209 613.38 238.196C612.62 240.18 612.24 242.497 612.24 245.144ZM672.214 248.394V226.086H679.655V264.202H672.364V257.602H671.967C671.089 259.638 669.684 261.332 667.75 262.689C665.832 264.03 663.442 264.698 660.582 264.698C658.134 264.698 655.969 264.161 654.083 263.086C652.215 261.995 650.744 260.381 649.668 258.246C648.61 256.112 648.08 253.474 648.08 250.33V226.086H655.497V249.437C655.497 252.034 656.216 254.103 657.655 255.642C659.093 257.179 660.962 257.949 663.261 257.949C664.649 257.949 666.031 257.602 667.402 256.908C668.791 256.211 669.942 255.161 670.85 253.755C671.776 252.349 672.231 250.562 672.214 248.394ZM689.62 264.202V226.086H696.789V232.141H697.186C697.881 230.089 699.105 228.477 700.856 227.301C702.627 226.11 704.628 225.515 706.858 225.515C707.323 225.515 707.867 225.532 708.496 225.563C709.142 225.597 709.645 225.638 710.008 225.689V232.785C709.711 232.702 709.183 232.613 708.421 232.513C707.661 232.397 706.9 232.339 706.14 232.339C704.388 232.339 702.825 232.712 701.451 233.455C700.096 234.183 699.022 235.2 698.227 236.509C697.433 237.799 697.036 239.271 697.036 240.926V264.202H689.62Z" fill="#656565"/>
<path d="M261.456 81.2585H329.595V93.9513H275.284V132.29H324.33V144.802H275.284V193.36H261.456V81.2585Z" fill="#757575"/>
<path d="M343.995 81.2585H357.99V193.281H343.995V81.2585Z" fill="#757575"/>
<path d="M381.789 187.34C376.466 181.709 373.805 173.831 373.805 163.705V113.499H387.789V161.684C387.789 169.31 389.602 174.893 393.23 178.431C396.858 181.969 401.738 183.742 407.867 183.75C412.351 183.818 416.747 182.564 420.449 180.159C424.108 177.783 427.056 174.546 429.004 170.763C431.027 166.982 432.074 162.798 432.059 158.556V113.499H446.054V193.292H432.712V181.762H432.059C429.438 186.017 425.613 189.488 421.02 191.779C416.109 194.455 410.545 195.857 404.886 195.844C394.826 195.807 387.126 192.972 381.789 187.34Z" fill="#757575"/>
<path d="M487.08 194.183C484.357 193.236 481.864 191.777 479.749 189.892C477.59 187.922 475.907 185.53 474.818 182.88C473.633 179.765 473.074 176.468 473.167 173.157V125.548H458.517V113.499H473.167V90.97H487.151V113.499H507.563V125.548H487.151V170.007C487.151 174.524 488.029 177.787 489.788 179.921C491.872 182.27 494.89 183.445 498.841 183.445C502.12 183.417 505.322 182.492 508.062 180.78V193.766C506.458 194.477 504.77 195.005 503.035 195.337C500.889 195.677 498.714 195.833 496.537 195.799C493.307 195.816 490.101 195.269 487.08 194.183Z" fill="#757575"/>
<path d="M544.917 194.183C542.201 193.234 539.712 191.774 537.599 189.892C535.436 187.924 533.749 185.531 532.656 182.88C531.477 179.765 530.922 176.467 531.017 173.157V125.548H516.366V113.499H531.017V90.97H545.001V113.499H565.412V125.548H545.001V170.007C545.001 174.524 545.881 177.787 547.627 179.921C549.717 182.27 552.74 183.445 556.693 183.445C559.968 183.418 563.165 182.492 565.901 180.78V193.766C564.301 194.479 562.618 195.005 560.887 195.337C558.735 195.677 556.556 195.833 554.376 195.799C551.145 195.812 547.941 195.266 544.917 194.183Z" fill="#757575"/>
<path d="M592.241 190.311C585.908 186.681 580.755 181.455 577.355 175.213C573.713 168.516 571.871 161.068 571.996 153.531C571.916 146.166 573.632 138.884 577.01 132.256C580.203 125.965 585.129 120.615 591.268 116.774C597.631 112.864 605.078 110.851 612.654 110.992C620.155 110.813 627.559 112.624 634.04 116.22C640.05 119.677 644.884 124.708 647.964 130.709C651.301 137.293 652.967 144.53 652.823 151.837C652.847 153.207 652.679 154.574 652.325 155.902H585.992C586.123 161.306 587.716 166.587 590.613 171.238C593.126 175.214 596.738 178.46 601.058 180.622C605.138 182.679 609.686 183.753 614.305 183.75C625.06 183.75 633.346 178.954 639.161 169.363L651.041 174.84C647.633 181.096 642.552 186.388 636.308 190.186C630.106 193.951 622.618 195.833 613.84 195.833C606.242 195.927 598.765 194.015 592.241 190.311ZM637.997 144.937C637.727 141.442 636.716 138.035 635.025 134.921C633.119 131.434 630.243 128.513 626.709 126.474C622.403 124.047 617.453 122.851 612.452 123.03C606.266 122.884 600.27 125.049 595.746 129.06C591.054 133.311 587.912 138.873 586.776 144.937H637.997Z" fill="#757575"/>
<path d="M661.876 113.499H675.218V126.327H675.873C677.657 121.765 681.005 117.907 685.377 115.373C689.751 112.548 694.907 111.019 700.194 110.981C703.574 110.903 706.935 111.492 710.066 112.708V126.948C706.366 125.242 702.297 124.387 698.186 124.453C694.188 124.436 690.284 125.583 686.994 127.739C683.567 130.006 680.792 133.048 678.914 136.592C676.886 140.298 675.841 144.419 675.873 148.596V193.292H661.889V113.499H661.876Z" fill="#757575"/>
<mask id="mask0_79_843" style="mask-type:luminance" maskUnits="userSpaceOnUse" x="35" y="26" width="166" height="249">
<path d="M200.63 26.3997H35.9338V274.294H200.63V26.3997Z" fill="white"/>
</mask>
<g mask="url(#mask0_79_843)">
<path d="M80.1414 119.3H35.9338V163.563L80.1414 119.3Z" fill="#00579B"/>
<path d="M76.1778 92.9341H39.8975V119.3H76.1778V92.9341Z" fill="#00579B"/>
<path d="M72.8399 69.7329H43.2329V92.9341H72.8399V69.7329Z" fill="#00579B"/>
<path d="M70.3207 54.9397H45.7549V69.733H70.3207V54.9397Z" fill="#00579B"/>
<path d="M66.584 42.8755H49.4939V54.9397H66.584V42.8755Z" fill="#00579B"/>
<path d="M58.0376 26.3997L51.4629 42.8755H64.6124L58.0376 26.3997Z" fill="#00579B"/>
<path d="M137.148 26.3997L130.573 42.8755H143.723L137.148 26.3997Z" fill="#00579B"/>
<path d="M145.694 42.8755H128.604V54.9397H145.694V42.8755Z" fill="#00579B"/>
<path d="M149.431 54.9397H124.865V69.733H149.431V54.9397Z" fill="#00579B"/>
<path d="M138.085 69.7329H124.865H122.343V85.495L138.085 69.7329Z" fill="#00579B"/>
<path d="M155.288 115.132L151.125 119.3H155.288V115.132Z" fill="#00579B"/>
<path d="M200.63 69.7329H138.085L35.9338 172.015L67.2052 203.326L98.4764 172.015L200.63 69.7329Z" fill="#5FC3EF"/>
<path d="M35.9338 180.464V274.294H80.1414V224.727L35.9338 180.464Z" fill="#00579B"/>
<path d="M159.252 119.3H151.125L115.044 155.426V274.294H156.06H159.252V119.3Z" fill="#00579B"/>
<path d="M159.252 232.864V274.294H200.63L159.252 232.864Z" fill="#5FC3EF"/>
<path d="M115.044 188.6L98.4764 172.015L67.2051 203.326L115.044 251.222V188.6Z" fill="#5FC3EF"/>
<path d="M67.2051 203.204L98.3572 172.015L107.692 181.361L67.2051 203.204Z" fill="url(#paint0_radial_79_843)" style="mix-blend-mode:multiply"/>
<path opacity="0.35" d="M159.252 233.616V232.864L184.095 274.294H159.252V233.616Z" fill="url(#paint1_linear_79_843)" style="mix-blend-mode:multiply"/>
</g>
<defs>
<radialGradient id="paint0_radial_79_843" cx="0" cy="0" r="1" gradientUnits="userSpaceOnUse" gradientTransform="translate(65.3871 204.112) scale(56.6052 56.6761)">
<stop stop-color="#919396"/>
<stop offset="1" stop-color="white"/>
</radialGradient>
<linearGradient id="paint1_linear_79_843" x1="159.252" y1="253.579" x2="184.095" y2="253.579" gradientUnits="userSpaceOnUse">
<stop stop-color="#414042"/>
<stop offset="0.7" stop-color="white"/>
</linearGradient>
</defs>
</svg>
