<svg width="880" height="1324" viewBox="0 0 880 1324" fill="none" xmlns="http://www.w3.org/2000/svg">
<path d="M236.208 496.182H0V732.589L236.208 496.182Z" fill="#00579B"/>
<path d="M215.03 355.359H21.1785V496.181H215.03V355.359Z" fill="#00579B"/>
<path d="M197.195 231.442H39.0005V355.359H197.195V231.442Z" fill="#00579B"/>
<path d="M183.734 152.432H52.4744V231.443H183.734V152.432Z" fill="#00579B"/>
<path d="M163.768 87.9971H72.4524V152.432H163.768V87.9971Z" fill="#00579B"/>
<path d="M118.104 0L82.9744 87.997H153.234L118.104 0Z" fill="#00579B"/>
<path d="M540.803 0L505.673 87.997H575.933L540.803 0Z" fill="#00579B"/>
<path d="M586.467 87.9971H495.151V152.432H586.467V87.9971Z" fill="#00579B"/>
<path d="M606.432 152.432H475.173V231.443H606.432V152.432Z" fill="#00579B"/>
<path d="M545.812 231.442H475.173H461.699V315.627L545.812 231.442Z" fill="#00579B"/>
<path d="M637.728 473.918L615.484 496.181H637.728V473.918Z" fill="#00579B"/>
<path d="M880 231.442H545.812L0 777.727L167.088 944.956L334.175 777.727L880 231.442Z" fill="#5FC3EF"/>
<path d="M0 822.854V1324H236.208V1059.26L0 822.854Z" fill="#00579B"/>
<path d="M658.907 496.182H615.484L422.698 689.13V1324H641.856H658.907V496.182Z" fill="#00579B"/>
<path d="M658.907 1102.72V1324H880L658.907 1102.72Z" fill="#5FC3EF"/>
<path d="M422.698 866.313L334.175 777.728L167.088 944.956L422.698 1200.77V866.313Z" fill="#5FC3EF"/>
<path d="M167.088 944.306L333.538 777.728L383.416 827.647L167.088 944.306Z" fill="url(#paint0_radial_668_4112)" style="mix-blend-mode:multiply"/>
<path opacity="0.35" d="M658.907 1106.74V1102.72L791.648 1324H658.907V1106.74Z" fill="url(#paint1_linear_668_4112)" style="mix-blend-mode:multiply"/>
<defs>
<radialGradient id="paint0_radial_668_4112" cx="0" cy="0" r="1" gradientUnits="userSpaceOnUse" gradientTransform="translate(157.374 949.161) scale(302.451 302.706)">
<stop stop-color="#919396"/>
<stop offset="1" stop-color="white"/>
</radialGradient>
<linearGradient id="paint1_linear_668_4112" x1="658.907" y1="1213.36" x2="791.648" y2="1213.36" gradientUnits="userSpaceOnUse">
<stop stop-color="#414042"/>
<stop offset="0.7" stop-color="white"/>
</linearGradient>
</defs>
</svg>
